<svg width="202" height="202" viewBox="0 0 202 202" fill="none" xmlns="http://www.w3.org/2000/svg">
<path d="M182.431 123.429L169.51 112.382C170.122 108.634 170.437 104.807 170.437 100.98C170.437 97.1534 170.122 93.3264 169.51 89.5784L182.431 78.5315C183.406 77.6972 184.103 76.586 184.431 75.3456C184.759 74.1053 184.701 72.7945 184.266 71.5877L184.088 71.0748C180.531 61.1332 175.205 51.9171 168.366 43.8719L168.011 43.4577C167.182 42.4822 166.076 41.781 164.84 41.4465C163.604 41.112 162.295 41.1598 161.087 41.5836L145.049 47.2846C139.131 42.4319 132.523 38.6049 125.382 35.9221L122.285 19.1545C122.051 17.8929 121.439 16.7322 120.53 15.8266C119.621 14.9211 118.458 14.3136 117.195 14.0848L116.663 13.9862C106.385 12.1319 95.5751 12.1319 85.2976 13.9862L84.765 14.0848C83.5024 14.3136 82.3393 14.9211 81.4303 15.8266C80.5212 16.7322 79.9092 17.8929 79.6755 19.1545L76.5587 36.001C69.4747 38.6844 62.8777 42.5093 57.0294 47.3241L40.8734 41.5836C39.6654 41.1564 38.3561 41.1069 37.1193 41.4416C35.8825 41.7763 34.7769 42.4795 33.9494 43.4577L33.5943 43.8719C26.7639 51.9228 21.4383 61.1373 17.8722 71.0748L17.6947 71.5877C16.807 74.0536 17.5369 76.8153 19.5292 78.5315L32.608 89.6967C31.9964 93.4053 31.7005 97.1928 31.7005 100.961C31.7005 104.748 31.9964 108.536 32.608 112.224L19.5292 123.39C18.5547 124.224 17.8571 125.335 17.5294 126.576C17.2017 127.816 17.2594 129.127 17.6947 130.333L17.8722 130.846C21.4427 140.789 26.7294 149.961 33.5943 158.049L33.9494 158.464C34.7789 159.439 35.8846 160.14 37.1206 160.475C38.3567 160.809 39.6651 160.761 40.8734 160.338L57.0294 154.597C62.908 159.43 69.4769 163.257 76.5587 165.92L79.6755 182.767C79.9092 184.028 80.5212 185.189 81.4303 186.095C82.3393 187 83.5024 187.608 84.765 187.836L85.2976 187.935C95.6696 189.799 106.291 189.799 116.663 187.935L117.195 187.836C118.458 187.608 119.621 187 120.53 186.095C121.439 185.189 122.051 184.028 122.285 182.767L125.382 165.999C132.52 163.323 139.166 159.484 145.049 154.637L161.087 160.338C162.295 160.765 163.604 160.814 164.841 160.48C166.078 160.145 167.184 159.442 168.011 158.464L168.366 158.049C175.231 149.942 180.518 140.789 184.088 130.846L184.266 130.333C185.153 127.907 184.424 125.145 182.431 123.429ZM155.504 91.9061C155.998 94.8848 156.254 97.9424 156.254 101C156.254 104.058 155.998 107.115 155.504 110.094L154.202 118.004L168.938 130.61C166.704 135.756 163.885 140.628 160.535 145.128L142.228 138.638L136.034 143.728C131.32 147.594 126.072 150.632 120.391 152.763L112.875 155.583L109.344 174.718C103.773 175.349 98.1481 175.349 92.5767 174.718L89.0456 155.544L81.589 152.684C75.9669 150.553 70.7394 147.515 66.0642 143.669L59.8701 138.559L41.4455 145.109C38.0919 140.591 35.2908 135.719 33.0419 130.59L47.9355 117.866L46.6533 109.976C46.1798 107.036 45.9234 103.998 45.9234 101C45.9234 97.9819 46.1601 94.9637 46.6533 92.0245L47.9355 84.1338L33.0419 71.4102C35.271 66.2616 38.0919 61.4088 41.4455 56.8915L59.8701 63.4407L66.0642 58.3315C70.7394 54.4848 75.9669 51.4469 81.589 49.3165L89.0654 46.4956L92.5964 27.3213C98.1396 26.6901 103.801 26.6901 109.364 27.3213L112.895 46.4561L120.411 49.277C126.072 51.4075 131.339 54.4454 136.054 58.3118L142.248 63.4012L160.554 56.9112C163.908 61.4286 166.709 66.301 168.958 71.4299L154.222 84.0352L155.504 91.9061ZM101 64.3086C81.8257 64.3086 66.2812 79.8532 66.2812 99.0274C66.2812 118.202 81.8257 133.746 101 133.746C120.174 133.746 135.719 118.202 135.719 99.0274C135.719 79.8532 120.174 64.3086 101 64.3086ZM116.623 114.651C114.574 116.706 112.139 118.335 109.458 119.446C106.776 120.556 103.902 121.126 101 121.121C95.1017 121.121 89.5585 118.813 85.3765 114.651C83.3215 112.602 81.6919 110.166 80.5814 107.485C79.471 104.804 78.9017 101.93 78.9062 99.0274C78.9062 93.1292 81.2142 87.586 85.3765 83.404C89.5585 79.2219 95.1017 76.9336 101 76.9336C106.898 76.9336 112.441 79.2219 116.623 83.404C118.678 85.4531 120.308 87.8884 121.418 90.5696C122.529 93.2509 123.098 96.1253 123.094 99.0274C123.094 104.926 120.786 110.469 116.623 114.651Z" fill="black"/>
</svg>
